<svg width="24" height="20" viewBox="0 0 24 20" fill="none" xmlns="http://www.w3.org/2000/svg">
<path fill-rule="evenodd" clip-rule="evenodd" d="M9.99997 0C7.79083 0 5.99997 1.79086 5.99997 4V6H0.867188L2.1792 16.4961C2.42942 18.4979 4.13102 20 6.14832 20H17.8516C19.8689 20 21.5705 18.4979 21.8207 16.4961L23.1328 6H18V4C18 1.79086 16.2091 0 14 0H9.99997ZM13 7C13 6.44772 12.5523 6 12 6H7.99997V4C7.99997 2.89543 8.8954 2 9.99997 2H14C15.1045 2 16 2.89543 16 4V8H20.8672L19.8362 16.2481C19.7111 17.2489 18.8603 18 17.8516 18H6.14832C5.13967 18 4.28887 17.2489 4.16376 16.2481L3.13275 8H12C12.5523 8 13 7.55228 13 7Z" fill="#808D9A"/>
</svg>
