<svg width="110" height="24" viewBox="0 0 110 24" fill="none" xmlns="http://www.w3.org/2000/svg">
<path fill-rule="evenodd" clip-rule="evenodd" d="M5.64233 11.1268C5.11183 15.2931 8.63773 18.8129 12.8109 18.2833C15.6557 17.9222 17.9528 15.6291 18.3146 12.7891C18.8448 8.62309 15.3192 5.10324 11.1457 5.63283C8.30092 5.99373 6.00385 8.28687 5.64233 11.1268ZM0.0606901 13.1781C-0.689805 5.61539 5.62488 -0.688237 13.2006 0.0605181C18.8065 0.614782 23.341 5.1415 23.8962 10.738C24.6465 18.3007 18.332 24.6044 10.7561 23.8554C5.15017 23.3011 0.61568 18.7746 0.0606901 13.1781ZM27.5868 3.90051C27.2271 2.1073 28.5913 0.533717 30.3236 0.533717H47.8587C48.5244 0.533717 48.9027 1.29424 48.5006 1.82383L36.3698 17.8008H45.8744C47.6068 17.8008 48.971 19.3742 48.6113 21.1674C48.3475 22.4824 47.1126 23.3806 45.7692 23.3806H26.726C26.0665 23.3806 25.6916 22.6271 26.0899 22.1025L38.23 6.11349H30.4288C29.0855 6.11349 27.8505 5.21553 27.5868 3.90051ZM106.419 0.597359C105.123 0.869736 104.232 2.07472 104.232 3.39766L104.232 12.6893L89.1056 0.709208C88.5783 0.291698 87.8012 0.666642 87.8012 1.33842V20.5217C87.8012 21.8444 88.6914 23.0496 89.9885 23.322C91.7973 23.7019 93.3906 22.3348 93.3906 20.5959V11.2253L108.517 23.2051C109.044 23.6226 109.821 23.2479 109.821 22.5762V3.32317C109.821 1.5843 108.228 0.217208 106.419 0.597359ZM50.2661 11.9548C50.2661 5.3523 57.7735 7.56892e-05 67.0344 7.56892e-05C76.295 7.56892e-05 83.8025 5.3523 83.8025 11.9548C83.8025 18.5571 76.295 23.9095 67.0344 23.9095C57.7735 23.9095 50.2661 18.5571 50.2661 11.9548ZM78.2128 11.9548C78.2128 8.9455 73.4323 5.57984 67.0344 5.57984C60.6362 5.57984 55.8556 8.9455 55.8556 11.9548C55.8556 14.9641 60.6362 18.3297 67.0344 18.3297C73.4323 18.3297 78.2128 14.9641 78.2128 11.9548Z" fill="#005BFF"/>
</svg>
